<svg width="90" height="90" viewBox="0 0 90 90" fill="none" xmlns="http://www.w3.org/2000/svg">
<path d="M42.2798 13.3835H47.4891C47.629 13.3869 47.7682 13.3628 47.8988 13.3125C48.0294 13.2621 48.1488 13.1866 48.2502 13.0901C48.3515 12.9936 48.4329 12.8781 48.4897 12.7502C48.5464 12.6223 48.5774 12.4844 48.5809 12.3445C48.5844 12.2046 48.5602 12.0654 48.5099 11.9348C48.4596 11.8042 48.384 11.6848 48.2875 11.5834C48.1911 11.482 48.0756 11.4006 47.9476 11.3439C47.8197 11.2872 47.6819 11.2562 47.5419 11.2527H42.2798V13.3835ZM42.2798 18.3575H47.608C48.3165 18.3575 48.7977 17.8842 48.7977 17.1678C48.7977 16.4514 48.3231 15.9782 47.608 15.9782H42.2798V18.3575ZM50.6866 14.5678C51.055 14.9208 51.3498 15.3433 51.554 15.8109C51.7582 16.2785 51.8677 16.7819 51.8762 17.2921C51.8826 17.7915 51.7889 18.2872 51.6007 18.7498C51.4126 19.2125 51.1337 19.6328 50.7805 19.986C50.4273 20.3392 50.007 20.6181 49.5443 20.8063C49.0816 20.9945 48.586 21.0881 48.0865 21.0817H39.4418V8.65002H47.9689C48.9411 8.65489 49.8722 9.04337 50.5596 9.73099C51.2469 10.4186 51.6351 11.3498 51.6396 12.322C51.5221 13.1401 51.1956 13.914 50.6918 14.5691L50.6866 14.5678ZM52.6997 35.8835H49.5022L48.5558 33.75H41.5686L40.6209 35.8821H37.43L43.5884 23.4504H46.4184L52.6997 35.8835ZM45.0027 26.6466L42.8706 31.1408H47.1348L45.0027 26.6466ZM49.2656 38.6064H52.8173L46.54 46.6576V51.0381H43.5778V46.6576L37.2978 38.6064H40.8535L45.1177 44.2902L49.2656 38.6064ZM65.7262 38.6064V41.3307H57.4371V43.4614H65.4883V46.1857H57.4371V48.5544H65.7262V51.2774H54.4815V38.6064H65.7262ZM74.8468 46.3047H72.5905V51.0407H69.6322V38.6064H77.2168C79.3476 38.6064 81.0065 40.3829 81.0065 42.515C81.0063 43.3393 80.7404 44.1415 80.2482 44.8028C79.756 45.464 79.0638 45.9489 78.2743 46.1857L81.9463 51.0407H78.3959L74.8468 46.3047ZM76.9776 41.2117H72.7134V43.5804H76.9763C77.2918 43.5804 77.5944 43.4551 77.8175 43.232C78.0406 43.0089 78.1659 42.7063 78.1659 42.3908C78.1659 41.7986 77.5724 41.2011 76.9763 41.2011L76.9776 41.2117ZM38.6077 51.0407H35.4103L34.4612 48.91H27.4767L26.5289 51.0407H23.3328L29.6088 38.6064H32.4507L38.6077 51.0407ZM30.9108 41.8039L28.7787 46.3047H33.1592L30.9108 41.8039ZM12.0814 43.3464H17.292C17.5746 43.3535 17.8484 43.2479 18.0531 43.0531C18.2579 42.8582 18.3769 42.5901 18.3839 42.3075C18.3909 42.0249 18.2854 41.7512 18.0905 41.5464C17.8957 41.3417 17.6275 41.2227 17.3449 41.2157C17.3273 41.2143 17.3096 41.2143 17.292 41.2157H12.0814V43.3464ZM12.0814 48.3204H17.411C18.1195 48.3204 18.6007 47.8472 18.6007 47.1308C18.6007 46.4144 18.1274 45.9412 17.411 45.9412H12.0814V48.3204ZM20.4895 44.5308C20.8581 44.8837 21.153 45.3062 21.3571 45.7738C21.5613 46.2414 21.6708 46.7449 21.6792 47.2551C21.6856 47.7545 21.5919 48.2502 21.4037 48.7128C21.2155 49.1755 20.9366 49.5958 20.5835 49.949C20.2303 50.3022 19.81 50.5811 19.3473 50.7693C18.8846 50.9575 18.3889 51.0511 17.8895 51.0447H9.12451V38.6064H17.6503C18.6225 38.6113 19.5536 38.9997 20.2409 39.6874C20.9283 40.375 21.3164 41.3062 21.321 42.2784C21.2981 43.0984 21.0059 43.8881 20.4895 44.5255V44.5308ZM50.6866 53.6513V56.3756H42.3974V58.5024H50.4486V61.2254H42.3974V63.5941H50.6866V66.317H39.4365V53.6461L50.6866 53.6513ZM48.5558 72.9499C48.5558 72.2414 48.0812 71.7603 47.3661 71.7603H42.2798V74.1303H47.3714C48.0812 74.1303 48.5611 73.6544 48.5611 72.9406L48.5558 72.9499ZM39.3189 81.5946V69.1695H47.608C49.7388 69.1695 51.3964 70.9447 51.3964 73.0768C51.4091 73.8393 51.1894 74.5877 50.7665 75.2223C50.3436 75.857 49.7376 76.3479 49.029 76.6298L52.8173 81.5999H49.2656L45.7125 76.8625H42.2758V81.5999L39.3189 81.5946Z" fill="#02374F"/>
<path d="M89.8826 42.1594C88.4629 18.7156 68.9237 0 45.0027 0C21.0817 0 1.54254 18.7156 0.121582 42.1594C0.141686 43.1107 0.22115 44.0599 0.35951 45.0013C1.27464 52.6416 4.17287 59.9095 8.7663 66.083C16.9418 77.214 30.082 84.4391 45.0027 84.4391C24.1616 84.4391 7.10873 68.2164 5.68778 47.8485C5.58879 46.9042 5.54905 45.9546 5.56881 45.0053C5.54905 44.0569 5.58878 43.1081 5.68778 42.1647C7.10873 21.7915 24.1616 5.56882 45.0027 5.56882C59.9235 5.56882 73.0677 12.7912 81.2392 23.9249C85.8299 30.098 88.7267 37.3643 89.642 45.0026C89.7741 45.9053 89.8531 46.815 89.8786 47.7269C89.8786 46.7792 89.9962 45.8327 89.9962 44.885C90.0133 43.9758 89.974 43.0664 89.8786 42.1621" fill="#6CB530"/>
<path d="M0.121517 47.8432C1.54248 71.2883 21.0816 90 45.0026 90C68.9237 90 88.4628 71.2896 89.8825 47.8432C89.8625 46.892 89.7839 45.9429 89.6472 45.0013C88.7304 37.362 85.8318 30.0953 81.2391 23.9223C73.0676 12.7912 59.9234 5.56616 45.0026 5.56616C65.8491 5.56616 82.9006 21.7902 84.3176 42.1581C84.4166 43.102 84.4563 44.0511 84.4365 45C84.4563 45.9488 84.4165 46.898 84.3176 47.8419C82.9006 68.3288 65.8491 84.4325 45.0026 84.4325C30.0819 84.4325 16.9417 77.2101 8.76623 66.0764C4.17398 59.9047 1.27581 52.6393 0.359445 45.0013C0.226225 44.0992 0.146775 43.1899 0.121517 42.2784C0.121517 43.2261 0.0038753 44.1725 0.0038753 45.1203C-0.0131867 46.0295 0.0261025 46.9389 0.121517 47.8432Z" fill="#1CABE3"/>
</svg>
