<svg width="87" height="70" viewBox="0 0 87 70" fill="none" xmlns="http://www.w3.org/2000/svg">
<g clip-path="url(#clip0_1270_4804)">
<path d="M17.7064 64.95C16.5785 64.95 15.7548 65.5204 15.7548 66.612C15.7548 67.6344 16.4708 68.347 17.5455 68.347C18.2621 68.347 18.9788 67.9476 19.4261 67.3766V65.9205C19.4261 65.4349 18.7988 64.95 17.7064 64.95M42.0837 64.7483C42.1369 66.6646 43.3554 68.0509 45.4508 68.0509C46.7232 68.0509 47.6908 67.3595 48.0304 66.9252C48.1913 67.0469 48.3536 67.2288 48.3536 67.6522C48.3536 68.6056 47.2067 69.9241 44.5378 69.9241C41.8518 69.9241 39.665 67.776 39.665 64.9678C39.665 61.8758 41.6895 59.6661 44.6816 59.6661C47.4017 59.6661 48.657 61.6755 48.657 63.3866C48.657 63.8913 48.5493 64.3585 48.3338 64.7483H42.0837V64.7483ZM45.8818 63.5097C46.3113 63.5097 46.3298 63.2573 46.3298 62.9195C46.3114 61.9114 45.5217 60.9779 44.323 60.9779C42.7649 60.9779 42.1553 62.2876 42.1021 63.5097H45.8818V63.5097ZM71.153 64.567C71.153 66.9088 71.4769 68.1022 72.9825 68.1022C74.6272 68.1022 75.0772 66.629 75.0772 65.2906V62.7362C75.0772 61.8587 74.6626 61.5182 73.7148 61.6207C73.3214 60.6345 74.6272 60.0067 75.3643 59.8624C75.5948 59.8268 75.8109 59.7913 76.01 59.7913C77.0472 59.7913 77.4454 60.4403 77.4454 61.4101C77.4454 61.7664 77.4106 62.4161 77.4106 65.1039C77.4106 66.2406 77.3922 66.8404 77.3922 67.0284C77.3922 67.9134 77.8007 68.3641 78.7478 68.2609C79.1358 69.2491 77.8382 69.7176 77.0977 69.8551C76.8706 69.8893 76.664 69.9241 76.4935 69.9241C75.5089 69.9241 75.3091 69.2833 75.1107 68.3648C74.9716 68.5372 74.8434 68.6781 74.5761 68.9366C73.931 69.5425 73.0896 69.907 72.139 69.907C71.0998 69.907 70.2223 69.507 69.6665 68.8504C68.8073 67.8279 68.8073 66.51 68.8073 64.5855V62.7369C68.8073 61.8594 68.3948 61.5188 67.4463 61.6214C67.0522 60.6352 68.3607 60.0074 69.0944 59.8631C69.3269 59.8275 69.541 59.792 69.7388 59.792C70.7766 59.792 71.1714 60.441 71.1714 61.4108L71.153 64.567H71.153ZM66.6226 64.7681C66.6226 61.7302 64.5271 59.6654 61.6251 59.6654C58.9391 59.6654 56.5559 61.7302 56.5559 64.7681C56.5559 67.8444 58.7946 69.9064 61.5357 69.9064C64.4365 69.9064 66.6226 67.8102 66.6226 64.7681ZM21.6654 67.445C21.6654 68.2198 22.1659 68.4667 23.0442 68.5885C22.9903 69.4885 22.363 69.8373 21.6293 69.9064C20.8049 69.9754 19.9989 69.5924 19.677 68.7293C19.2999 69.0727 18.1898 69.9406 16.7388 69.9406C14.7511 69.9406 13.2639 68.6049 13.2639 66.7857C13.2639 64.8625 14.9298 63.7231 17.2761 63.7231C18.0835 63.7231 18.9235 63.8913 19.4254 64.1519V62.8641C19.4254 61.7103 18.9235 60.9779 17.6171 60.9779C17.3477 60.9779 16.7572 61.049 16.2908 61.2268C16.3447 61.4094 16.3815 61.6043 16.3815 61.7835C16.3815 62.4879 15.9335 63.059 15.1814 63.059C14.5179 63.059 14.016 62.5228 14.016 61.8382C14.016 60.5805 15.5932 59.6647 17.7787 59.6647C19.5161 59.6647 20.5737 60.0778 21.1287 60.7953C21.6293 61.4265 21.6654 62.397 21.6654 63.7976V67.445ZM64.0614 64.9158C64.0614 67.25 63.0577 68.5187 61.6435 68.5187C60.3895 68.5187 59.1716 67.2507 59.1716 64.4822C59.1716 62.3252 60.067 60.9785 61.5357 60.9785C62.9861 60.978 64.0614 62.4708 64.0614 64.9158M28.7576 61.3725C28.8115 61.9853 29.3311 62.4148 29.9394 62.4148C30.7099 62.4148 31.1756 61.7295 31.1756 61.0661C31.1756 60.1312 30.4235 59.647 29.6707 59.647C28.8115 59.647 27.8978 60.2946 27.3789 61.263L27.3427 61.2808C27.1818 60.4205 26.7693 59.7714 25.9094 59.7714C25.7124 59.7714 25.4976 59.8084 25.265 59.8795C24.5484 60.0949 23.4915 60.6503 23.8863 61.6378C24.8893 61.4443 25.2473 61.7828 25.2473 62.6603V66.8383C25.2473 67.6679 25.1403 68.0153 24.8532 68.2588C24.5838 68.4653 24.2981 68.5508 24.1188 68.5864C23.7069 69.4864 24.5129 69.7668 26.5013 69.7668C28.4897 69.7668 29.1702 69.4871 28.7583 68.5864C28.579 68.5502 28.0778 68.4647 27.8092 68.2588C27.5221 68.0153 27.3973 67.6679 27.3973 66.8383V64.3181C27.3968 62.0714 28.2203 61.4805 28.7576 61.3725M53.4043 59.9157H55.9654C56.2702 60.6509 55.8584 61.2439 55.2849 61.2986C55.1056 61.3178 54.9085 61.3178 54.7299 61.3178C54.2635 61.3178 53.7984 61.2808 53.4759 61.2808V66.839C53.4759 67.6686 53.6191 68.016 53.9055 68.2595C54.1748 68.466 54.8021 68.5515 54.9815 68.5871C55.3933 69.4871 54.4251 69.7675 52.4374 69.7675C50.4497 69.7675 49.626 69.4878 50.0372 68.5871C50.2158 68.5508 50.5036 68.4653 50.7715 68.2595C51.0579 68.016 51.165 67.6686 51.165 66.839V61.2432L49.6608 61.1899C49.356 60.456 49.7678 59.9335 50.3767 59.9335H51.1302V59.2147C51.1302 57.7593 51.3982 56.9503 51.7569 56.4114C52.3112 55.5489 53.2611 54.9567 54.7469 54.9567C56.6282 54.9567 58.1502 55.8369 58.1502 57.1657C58.1502 57.7409 57.7561 58.4412 56.9323 58.4412C56.3241 58.4412 55.7506 57.9201 55.7506 57.2744C55.7506 57.0036 55.8584 56.7164 56.0009 56.5379C55.7868 56.2862 55.3388 56.1597 54.9085 56.1597C53.6723 56.1597 53.4043 57.0761 53.4043 58.2258V59.9157V59.9157ZM36.9075 61.3725C36.9614 61.9853 37.481 62.4148 38.0899 62.4148C38.8604 62.4148 39.3255 61.7295 39.3255 61.0661C39.3255 60.1312 38.5733 59.647 37.8212 59.647C36.9614 59.647 36.0477 60.2946 35.5294 61.263L35.4926 61.2808C35.3324 60.4205 34.9198 59.7714 34.06 59.7714C33.8636 59.7714 33.6481 59.8084 33.4156 59.8795C32.6982 60.0949 31.6413 60.6503 32.0361 61.6378C33.0392 61.4443 33.3965 61.7828 33.3965 62.6603V66.8383C33.3965 67.6679 33.2901 68.0153 33.003 68.2588C32.7344 68.4653 32.4487 68.5508 32.27 68.5864C31.8575 69.4864 32.6641 69.7668 34.6512 69.7668C36.6388 69.7668 37.3207 69.4871 36.9082 68.5864C36.7295 68.5501 36.2283 68.4647 35.959 68.2588C35.6726 68.0153 35.5471 67.6679 35.5471 66.8383V64.3181C35.5466 62.0714 36.3702 61.4805 36.9075 61.3725M84.5793 61.3725C84.6393 61.9853 85.163 62.4148 85.7746 62.4148C86.5342 62.4148 86.9999 61.7295 86.9999 61.0661C86.9999 60.1312 86.2587 59.647 85.4957 59.647C84.6393 59.647 83.7358 60.2946 83.2182 61.263L83.1657 61.2808C83.0089 60.4204 82.5929 59.7714 81.7488 59.7714C81.5388 59.7714 81.3349 59.8083 81.0894 59.8795C80.383 60.0949 79.3295 60.6502 79.7134 61.6378C80.7198 61.4442 81.0723 61.7828 81.0723 62.6602V66.8383C81.0723 67.6679 80.9694 68.0153 80.6734 68.2588C80.4164 68.4653 80.1211 68.5508 79.95 68.5864C79.534 69.4864 80.3475 69.7668 82.3345 69.7668C84.3222 69.7668 84.9945 69.4871 84.5786 68.5864C84.4081 68.5501 83.9069 68.4646 83.628 68.2588C83.3553 68.0153 83.2346 67.6679 83.2346 66.8383V64.3181C83.2353 62.0714 84.0447 61.4805 84.5793 61.3724" fill="#004E9F"/>
<path d="M0 62.7813C0 67.315 3.11552 70.0001 6.50107 70.0001C9.54635 70.0001 11.6772 67.8526 11.6772 66.0648C11.6772 65.1128 11.0867 64.4207 10.3162 64.4207C9.52795 64.4207 8.86583 64.9569 8.86583 65.8781C8.86583 66.4663 9.18768 66.7952 9.42089 67.0544C9.00835 67.8532 8.13077 68.5105 6.76905 68.5105C4.5127 68.5105 2.883 66.153 2.883 62.7629C2.883 59.3686 4.44042 56.9968 6.69813 56.9968C8.05985 56.9968 8.93675 57.6616 9.34929 58.4528C9.11609 58.7216 8.79424 59.0451 8.79424 59.6381C8.79424 60.5545 9.45703 61.0928 10.2453 61.0928C11.0158 61.0928 11.6056 60.3945 11.6056 59.4404C11.6056 57.6609 9.47476 55.5059 6.42947 55.5059C3.04324 55.5053 0 58.4522 0 62.7813Z" fill="#004E9F"/>
<path d="M29.3373 1.56137L10.3326 20.0018C9.38341 20.8101 8.77722 21.7594 8.77722 23.1177C8.77722 24.4698 9.38409 25.4225 10.3326 26.237L29.3373 44.6712C29.4594 44.7964 29.5774 44.8463 29.6776 44.8463C29.8576 44.8463 29.9817 44.6822 29.9763 44.4893C29.9708 44.3758 29.9217 44.2452 29.8092 44.1323C25.3483 38.5735 22.1026 32.198 22.1026 23.1847C22.1026 14.1659 25.3483 7.6653 29.8092 2.10235C29.9217 1.99087 29.9708 1.86229 29.9763 1.74602C29.9824 1.54906 29.8576 1.3897 29.6776 1.3897C29.5774 1.38776 29.4594 1.4369 29.3373 1.56137" fill="#E3000D"/>
<path d="M43.948 0C36.5067 0 33.5991 10.5767 33.5991 23.1833C33.5991 35.794 36.5067 46.2299 43.948 46.2299C48.4137 46.2299 52.22 43.6071 52.2322 41.4514C52.2342 40.9795 52.0529 40.5274 51.6581 40.1328C49.5415 38.0817 48.7137 36.032 48.7076 34.2231C48.6939 30.77 51.6806 28.1978 54.434 28.1978C58.2192 28.1978 60.4516 31.1817 60.4516 35.0458C60.4516 38.7075 58.8963 41.7571 57.2038 44.1993C57.137 44.2992 57.107 44.4107 57.107 44.5085C57.1084 44.7 57.2209 44.8573 57.3893 44.8573C57.4916 44.8573 57.6116 44.8026 57.7425 44.6706L76.752 26.2363C77.7012 25.4225 78.3074 24.4691 78.3074 23.117C78.3074 21.7594 77.7005 20.8095 76.752 20.0011L57.7425 1.56069C57.6123 1.43007 57.4923 1.37467 57.3893 1.37467C57.2195 1.37467 57.1084 1.53333 57.107 1.72552C57.107 1.824 57.137 1.93411 57.2038 2.03533C58.8956 4.47417 60.4516 7.52716 60.4516 11.1861C60.4516 15.0475 58.2192 18.0341 54.434 18.0341C51.6806 18.0341 48.6939 15.464 48.7076 12.0102C48.7137 10.2013 49.5415 8.14953 51.6581 6.10052C52.0529 5.70384 52.2343 5.25588 52.2322 4.7833C52.22 2.62418 48.4137 0 43.948 0Z" fill="#004E9F"/>
</g>
<defs>
<clipPath id="clip0_1270_4804">
<rect width="87" height="70" fill="white"/>
</clipPath>
</defs>
</svg>
