<svg width="300" height="124" viewBox="0 0 300 124" fill="none" xmlns="http://www.w3.org/2000/svg">
<mask id="mask0_3275_4603" style="mask-type:luminance" maskUnits="userSpaceOnUse" x="1" y="1" width="298" height="121">
<path d="M1.99658 121.996H298.002V1.99969H1.99658V121.996Z" fill="white"/>
</mask>
<g mask="url(#mask0_3275_4603)">
<path d="M251.609 110.56C231.866 115.858 209.99 98.2824 202.761 71.3396C195.544 44.3736 205.706 18.2423 225.467 12.9268C245.216 7.64606 267.081 25.2157 274.309 52.1585C281.526 79.1245 271.376 105.256 251.609 110.56ZM127.474 111.035C116.982 111.035 104.815 100.317 104.815 85.5008C104.815 78.1275 109.864 70.4585 115.284 66.198C125.932 78.6782 138.743 91.3323 149.438 101.146C146.11 104.282 137.682 111.035 127.474 111.035ZM125.712 11.0255C132.274 11.0255 138.917 18.1322 138.917 28.7111C138.917 33.5339 137.242 42.4955 127.103 50.0427C121.365 43.1273 114.525 33.8005 114.525 26.6707C114.525 17.8598 118.715 11.0255 125.712 11.0255ZM238.063 2.12185C207.224 2.12185 181.847 25.4186 178.531 55.3872C176.01 55.4626 173.552 55.5032 171.917 55.5032C164.347 55.5032 156.759 55.0163 154.62 54.8771L151.374 54.6627L153.797 63.0678L155.188 63.2475C158.73 63.7344 161.628 64.1866 163.761 64.5981C163.796 65.0445 163.848 65.4792 163.848 65.9835C163.848 72.9279 161.669 82.359 159.124 88.4745C152.568 80.7186 141.862 67.9834 133.781 57.8856C147.884 48.5298 158.173 37.0235 158.173 26.6707C158.173 14.405 146.609 2.00012 128.129 2.00012C110.913 2.00012 94.2015 14.689 94.2015 30.2704C94.2015 38.7277 99.8184 48.1936 108.705 58.4363C97.3143 64.3952 83.7907 75.6755 83.7907 91.3091C83.7907 108.774 101.349 121.956 121.394 121.956C134.917 121.956 146.047 117.464 155.385 108.351C156.991 109.69 159.895 112.171 159.895 112.171C164.834 116.414 166.515 117.974 171.517 120.756L172.224 121.15L186.026 117.782L182.461 114.565C178.195 110.71 174.792 106.693 166.306 96.6014C172.52 87.1992 176.462 77.9478 178.496 68.4935C181.713 98.5607 207.149 121.991 238.063 121.991C271.179 121.991 298 95.158 298 62.065C298 28.9545 271.179 2.12185 238.063 2.12185ZM49.6774 64.0358L48.1993 64.4706L47.2834 73.4322L50.1064 72.9743C56.4421 71.9541 72.1394 67.282 81.0895 56.877C87.7962 49.0863 91.0539 40.3334 91.0539 30.1255C91.0539 25.7374 89.6395 14.8281 76.4579 8.46919C69.7164 5.26944 55.0161 3.72753 39.2666 3.72753L16.8974 3.81447L2.1681 3.89564L2.51011 6.79396L3.17092 10.8864L5.44901 11.1067C8.05171 11.3559 14.3585 11.9704 17.4829 12.7181C17.8886 20.2943 18.0335 44.5997 18.0335 50.8253V57.1204C18.0335 74.1974 17.8828 102.404 17.4713 111.412C14.6367 111.928 10.3993 112.496 7.66333 112.867L3.35642 113.481L3.08397 115.307L2 120.298L4.84616 120.066C8.5734 119.747 26.0677 119.452 32.6527 119.452C38.8319 119.452 53.8568 119.747 58.3202 120.066L61.2939 120.269L59.5665 113.417L58.0072 113.238C55.0625 112.919 46.9298 112.003 42.6809 111.354C42.2809 103.047 42.1476 72.2207 42.1476 57.8856V51.3006C42.1476 37.406 42.2809 19.1524 42.6403 12.3587C48.5935 12.5732 53.9032 13.7209 57.0971 15.5237C63.259 19.0307 66.8007 27.1808 66.8007 35.7714C66.8007 54.4482 58.5985 61.4621 49.6774 64.0358ZM271.73 61.2708C269.88 60.2101 268.646 59.4971 268.646 58.1001C268.646 56.9292 269.649 56.1002 270.924 56.1002C272.24 56.1002 273.069 56.7553 273.718 57.2596V54.9815C273.016 54.6859 272.072 54.2743 270.733 54.2743C268.31 54.2743 266.356 56.2046 266.356 58.5406C266.356 60.7839 267.62 61.5781 270.773 63.5605C271.208 63.8214 272.014 64.4706 272.014 65.4908C272.014 66.54 271.086 67.5602 269.805 67.5602C268.443 67.5602 267.573 66.54 266.907 65.7632V68.8876C267.597 69.1021 268.292 69.2992 269.451 69.2992C272.53 69.2992 274.442 67.5254 274.442 65.0792C274.442 63.6591 273.851 62.4997 271.73 61.2708ZM259.661 62.3954C260.786 62.4881 261.33 62.5577 263.029 63.062L264.287 60.9868H259.661V55.8278C261.214 55.7698 262.084 55.9611 263.724 56.7147L264.866 54.4308H256.908C257.313 55.7061 257.464 57.161 257.464 58.1696V65.3923C257.464 67.282 257.163 68.3254 256.908 69.1949H264.646L265.718 66.7371C262.594 67.7921 261.551 67.7921 259.661 67.7921V62.3954ZM252.867 61.2708C251.018 60.2101 249.778 59.4971 249.778 58.1001C249.778 56.9292 250.78 56.1002 252.062 56.1002C253.383 56.1002 254.206 56.7553 254.861 57.2596V54.9815C254.148 54.6859 253.209 54.2743 251.864 54.2743C249.441 54.2743 247.488 56.2046 247.488 58.5406C247.488 60.7839 248.757 61.5781 251.899 63.5605C252.34 63.8214 253.14 64.4706 253.14 65.4908C253.14 66.54 252.218 67.5602 250.943 67.5602C249.581 67.5602 248.705 66.54 248.044 65.7632V68.8876C248.723 69.1021 249.424 69.2992 250.583 69.2992C253.673 69.2992 255.586 67.5254 255.586 65.0792C255.586 63.6591 255 62.4997 252.867 61.2708ZM245.963 54.4308H242.63C243.007 55.3351 243.198 56.2567 243.198 57.932V64.9575C243.198 67.4211 242.92 68.2616 242.63 69.1949H245.963C245.523 67.6356 245.401 66.7951 245.401 65.1198V58.3261C245.401 56.1002 245.674 55.3003 245.963 54.4308ZM240.184 54.4308H237.037C237.57 55.5496 237.57 57.1494 237.57 57.8102V63.6475C237.57 64.5633 237.535 64.8126 237.442 65.1198C237.037 66.4936 235.651 67.6993 234.063 67.6993C233.13 67.6993 231.408 67.166 230.672 65.3749C230.469 64.8126 230.382 64.2677 230.382 63.3518V57.9726C230.382 55.9205 230.533 55.3988 230.863 54.4308H227.698C227.953 55.0626 228.185 55.5727 228.185 57.8102V63.6475C228.185 67.0153 229.936 69.334 232.996 69.334C235.083 69.334 236.799 68.2616 237.663 67.7399C237.686 68.1747 237.663 68.3543 237.57 69.1949H240.184C239.796 67.2066 239.796 66.3371 239.796 65.3169V57.4451C239.796 55.5148 239.952 55.0626 240.184 54.4308ZM219.282 62.1519V55.6887C222.226 55.9843 222.916 57.7581 222.916 58.8594C222.916 61.1201 220.684 61.7578 219.282 62.1519ZM225.159 58.6334C225.159 56.6625 223.368 54.367 219.589 54.4308L216.696 54.4656C216.853 54.9815 217.096 55.7814 217.096 57.5204V65.3749C217.096 66.6559 217.015 67.7399 216.696 69.1949H219.687C219.299 67.6124 219.282 67.1428 219.282 66.0067V62.3548C222.325 66.4125 223.235 67.4849 225.223 69.1949H227.252C225.496 67.0907 223.699 64.8937 222.371 62.5867C223.032 62.2331 225.159 61.039 225.159 58.6334ZM205.428 61.8853C205.428 58.5928 207.717 56.1524 211.004 56.1524C212.76 56.1524 213.978 56.7784 214.836 57.2248V54.8656C214.111 54.5989 213.207 54.2975 211.676 54.2975C206.372 54.2975 203.074 58.1928 203.074 62.1403C203.074 64.7778 204.749 69.3108 210.476 69.3108C212.801 69.3108 214.14 68.6616 215.079 68.1862L215.201 65.9024C214.395 66.5168 213.102 67.5022 210.847 67.5022C207.393 67.5022 205.428 64.8937 205.428 61.8853Z" fill="#192952"/>
</g>
</svg>
