<?xml version="1.0" encoding="utf-8"?>
<!-- Generator: Adobe Illustrator 26.5.0, SVG Export Plug-In . SVG Version: 6.00 Build 0)  -->
<svg version="1.1" id="Layer_1" xmlns="http://www.w3.org/2000/svg" xmlns:xlink="http://www.w3.org/1999/xlink" x="0px" y="0px"
	 viewBox="0 0 90 90" style="enable-background:new 0 0 90 90;" xml:space="preserve">
<style type="text/css">
	.st0{fill-rule:evenodd;clip-rule:evenodd;fill:#1F2A4F;}
	.st1{fill-rule:evenodd;clip-rule:evenodd;fill:#FFFFFF;}
</style>
<path class="st0" d="M75.7,60c3.8-0.1,7.5-1.7,10.1-4.5C88.5,52.7,90,48.9,90,45s-1.5-7.7-4.2-10.5c-2.7-2.8-6.3-4.4-10.1-4.5H15.1
	c-2-0.1-3.9,0.3-5.7,1c-1.8,0.7-3.5,1.8-4.9,3.2c-1.4,1.4-2.5,3.1-3.3,4.9C0.4,41,0,43,0,45s0.4,4,1.2,5.8c0.8,1.8,1.9,3.5,3.3,4.9
	c1.4,1.4,3.1,2.5,4.9,3.2c1.8,0.7,3.8,1.1,5.7,1H75.7z"/>
<path class="st1" d="M75.2,58c3.4,0,6.6-1.4,9-3.9c2.4-2.4,3.7-5.7,3.7-9.1s-1.3-6.7-3.7-9.1c-2.4-2.4-5.6-3.8-9-3.9H15
	c-1.7,0-3.4,0.3-5,1c-1.6,0.6-3,1.6-4.2,2.8C4.6,37,3.7,38.4,3,40c-0.7,1.6-1,3.3-1,5s0.3,3.4,1,5c0.7,1.6,1.6,3,2.8,4.2
	c1.2,1.2,2.7,2.2,4.2,2.8c1.6,0.6,3.3,1,5,1H75.2z"/>
<path class="st0" d="M74.8,55c1.3,0,2.7-0.2,3.9-0.7c1.2-0.5,2.4-1.2,3.3-2.2s1.7-2,2.2-3.3c0.5-1.2,0.8-2.5,0.8-3.9
	s-0.3-2.6-0.8-3.9c-0.5-1.2-1.3-2.3-2.2-3.3s-2.1-1.7-3.3-2.2c-1.2-0.5-2.6-0.7-3.9-0.7H15.2c-1.3,0-2.7,0.2-3.9,0.7
	C10.1,36.2,9,37,8,37.9c-1,0.9-1.7,2-2.2,3.3C5.3,42.4,5,43.7,5,45s0.3,2.6,0.8,3.9C6.3,50.1,7,51.2,8,52.1c1,0.9,2.1,1.7,3.3,2.2
	c1.2,0.5,2.6,0.7,3.9,0.7H74.8z"/>
<path class="st1" d="M14.2,40.6h0.3c0.8,0,1.1,0.3,1.1,1.1v4.3c0,0.8-0.3,1.1-1.1,1.1h-0.3V40.6z M10,38.1v2
	c0.4,0.2,0.5,0.5,0.5,0.9v5.6c0,0.4-0.1,0.7-0.5,0.9v2h5.3c1.1,0,2.2-0.1,3.1-0.8c0.9-0.8,1-1.7,1-2.8v-4.3c0-1.1-0.1-2.1-1.1-2.9
	c-0.9-0.6-2-0.6-3.1-0.6L10,38.1L10,38.1z M25,44.1h-1.3v-0.3c0-0.3,0.1-0.9,0.6-0.9c0.6,0,0.6,0.5,0.6,0.9V44.1z M20.3,46.5
	c0,1,0,2,1,2.6c0.7,0.5,2.1,0.7,3.5,0.6c1.4-0.1,2.7-0.5,3.5-1.1v-2.1h-3.3v0.3c0,0.4,0,0.9-0.6,0.9c-0.6,0-0.6-0.6-0.6-1v-0.8h4.6
	v-2c0.1-2.1-0.7-3.1-4-3.1c-3.1,0-3.9,0.9-3.9,3.2L20.3,46.5L20.3,46.5z M29,49.6v-2c0.5-0.3,0.4-0.7,0.4-1.1v-5.2
	c0-0.4,0-0.9-0.4-1.1v-2h4.6v2c-0.5,0.3-0.4,0.7-0.4,1.1v5.9h0.4c1,0,0.9-0.6,0.9-1.3V44h3.3v5.6L29,49.6L29,49.6z M42,44.2
	c0-0.5-0.1-1.3,0.6-1.3c0.7,0,0.6,0.8,0.6,1.3v2.4c0,0.5,0,1.2-0.6,1.2S42,47.1,42,46.7V44.2z M46.6,44.2c0-1.1-0.1-2.1-1.1-2.7
	c-0.8-0.4-2.1-0.5-3-0.5c-1,0-2.1,0.1-2.9,0.7c-0.8,0.6-0.8,1.6-0.8,2.5v2.2c0,1.1,0,2.1,1.1,2.8c0.8,0.5,2.1,0.6,3,0.6
	c1,0,2.2-0.1,3-0.7c0.8-0.7,0.8-1.7,0.8-2.7V44.2z M51,41.7c0.9-0.6,1.7-0.7,2.4-0.7c0.7,0,1.3,0.2,1.6,0.6c0.6,0.5,0.7,1.2,0.7,1.9
	v3.2c0,0.4,0,0.9,0.4,1.1v1.9h-3.5c-0.2-0.9-0.2-1.8-0.2-2.6v-2.5c0-0.3,0-0.5-0.1-0.8c-0.2-0.3-0.6-0.6-1.1-0.3v3.2
	c0,0.4,0,0.9,0.4,1.1v1.9h-4.2v-1.9c0.4-0.2,0.4-0.6,0.4-1.1v-2.6c0-0.5,0-0.8-0.4-1v-1.9H51L51,41.7L51,41.7z M61.7,47.2
	c-0.2,0.1-0.4,0.1-0.6,0.1c-0.7,0-0.7-0.7-0.7-1.2v-1.9c0-0.5,0-1,0.7-1c0.2,0,0.4,0.1,0.6,0.2L61.7,47.2L61.7,47.2z M65.4,41.2
	h-3.7v0.5c-0.6-0.4-1.4-0.7-2.2-0.7c-2,0-2.5,1.2-2.5,3v3.2c0,1.9,1,2.6,2.6,2.6c0.7,0,1.4-0.2,2-0.6v0.5c0,0.5,0.1,1.3-0.6,1.3
	c-0.1,0-0.2,0-0.3-0.1c-0.1-0.1-0.2-0.1-0.2-0.2c-0.1-0.2-0.1-0.4-0.1-0.6h-3.1v2c1.3,0.7,2.4,0.9,3.9,0.9c1,0,2.3-0.1,3.1-0.8
	c0.8-0.7,0.7-2,0.7-3v-5.1c0-0.4,0-0.8,0.4-1L65.4,41.2L65.4,41.2z M70.1,41.5c0.7-0.4,1.5-0.6,2.3-0.5c0.7,0,1.3,0.2,1.6,0.6
	c0.6,0.5,0.7,1.2,0.7,1.9v3.2c0,0.4,0,0.9,0.4,1.1v1.9h-3.5c-0.2-0.9-0.2-1.8-0.2-2.6v-2.5c0-0.3,0-0.5-0.1-0.8
	c-0.2-0.3-0.6-0.6-1.1-0.3v3.2c0,0.4,0,0.9,0.4,1.1v1.9h-4.2v-1.9c0.4-0.2,0.4-0.6,0.4-1.1v-5.5c0-0.4,0-0.9-0.4-1.1v-1.9h3.7
	L70.1,41.5L70.1,41.5z M79.6,46.6c0,0.4,0,0.9,0.4,1.1v1.9h-4.2v-1.9c0.4-0.3,0.4-0.6,0.4-1.1v-2.5c0-0.4,0-0.9-0.4-1.1v-1.9h3.7
	V46.6z M76,39.3c0-0.9,1-1.3,1.8-1.3c0.8,0,1.8,0.4,1.8,1.3c0,0.9-0.9,1.3-1.8,1.3C76.9,40.6,76,40.2,76,39.3z M20.8,39.4h7.2V40
	h-7.2V39.4z"/>
</svg>
