<?xml version="1.0" encoding="UTF-8"?>
<svg id="Layer_1" data-name="Layer 1" xmlns="http://www.w3.org/2000/svg" viewBox="0 0 29.87 33.36">
  <defs>
    <style>
      .cls-1 {
        fill: #fff;
        stroke-width: 0px;
      }
    </style>
  </defs>
  <path class="cls-1" d="m14.94,33.36c-.15,0-.31-.04-.45-.11l-6.23-3.12C3.16,27.59,0,22.47,0,16.78V4.48c0-.28.12-.56.33-.75.21-.19.49-.28.78-.25l1.21.13c4.03.45,8.06-.6,11.36-2.96l.67-.48c.35-.25.81-.25,1.16,0l.67.48c3.3,2.36,7.33,3.41,11.36,2.96l1.21-.13c.29-.03.56.06.78.25.21.19.33.46.33.75v12.29c0,5.69-3.16,10.81-8.26,13.36l-6.23,3.12c-.14.07-.29.11-.45.11ZM2,5.6v11.17c0,4.93,2.74,9.36,7.15,11.57l5.79,2.89,5.79-2.89c4.41-2.21,7.15-6.64,7.15-11.57V5.6h-.1c-4.52.52-9.04-.67-12.74-3.31l-.09-.07-.09.07c-3.7,2.64-8.23,3.82-12.74,3.32h-.1Zm11.19,15.56c-.27,0-.52-.11-.71-.29l-3.48-3.48c-.39-.39-.39-1.02,0-1.41s1.02-.39,1.41,0l2.78,2.78,6.26-6.26c.39-.39,1.02-.39,1.41,0s.39,1.02,0,1.41l-6.97,6.97c-.19.19-.44.29-.71.29Z"/>
</svg>