<svg width="90" height="90" viewBox="0 0 90 90" fill="none" xmlns="http://www.w3.org/2000/svg">
<path fill-rule="evenodd" clip-rule="evenodd" d="M89.9975 55.592C89.9967 55.8589 89.9169 56.1196 89.768 56.3412C89.6191 56.5628 89.4079 56.7353 89.161 56.8369C88.9142 56.9385 88.6428 56.9647 88.381 56.9121C88.1193 56.8596 87.879 56.7306 87.6906 56.5416C87.5021 56.3525 87.3738 56.1119 87.322 55.85C87.2703 55.5881 87.2972 55.3168 87.3996 55.0702C87.5019 54.8237 87.675 54.613 87.897 54.4648C88.119 54.3165 88.38 54.2374 88.6469 54.2374C88.8246 54.2374 89.0006 54.2725 89.1647 54.3406C89.3288 54.4087 89.4779 54.5086 89.6034 54.6344C89.7288 54.7602 89.8282 54.9096 89.8959 55.0739C89.9635 55.2382 89.998 55.4143 89.9975 55.592V55.592Z" fill="white"/>
<path fill-rule="evenodd" clip-rule="evenodd" d="M81.2511 35.7871C81.013 37.2832 80.5051 38.7277 79.3873 39.9407C78.8582 40.5161 78.0884 41.1219 77.3674 41.3547H80.4257C81.3623 41.3547 83.1943 40.8759 84.1626 39.8349C85.9193 37.9247 85.8915 35.8308 86.2685 33H83.6335C82.9668 33 81.685 33.0357 81.2511 35.7871Z" fill="#E6292B" fill-opacity="0.9"/>
<path fill-rule="evenodd" clip-rule="evenodd" d="M70.3869 40.9447H14.757V56.6726C14.4726 56.842 13.6446 56.9187 12.9964 56.9187C10.8019 56.9187 10.0082 56.2097 8.84152 54.1051L3.21305 44.118V56.6369H0V38.3943C0.2844 38.2277 1.10717 38.139 1.75931 38.139C3.95117 38.139 4.74484 38.8507 5.91419 40.9447L11.5691 50.9198V38.4261H74.3248C74.3248 40.1986 71.2983 40.9447 70.3869 40.9447Z" fill="#111111"/>
<path fill-rule="evenodd" clip-rule="evenodd" d="M85.2128 43.4302V46.0612H79.3066V49.0031H84.3954V51.6289H79.3066C79.3066 52.7162 79.3304 53.6673 79.7034 54.2268C80.1241 54.8723 80.9402 54.9914 82.2935 54.9914C83.3017 54.9912 84.3044 54.841 85.2684 54.5456V56.9994C84.4575 57.4121 83.1612 57.6184 81.9522 57.6184C79.6479 57.6184 77.9071 57.2348 76.8885 56.207C76.1028 55.3763 75.7946 53.6342 75.7946 51.6871V43.4302H85.2128ZM26.3369 43.4302V46.0612H20.428V49.0031H25.522V51.6289H20.428C20.428 52.7162 20.4557 53.6673 20.8248 54.2268C21.2481 54.8723 22.0669 54.9914 23.4122 54.9914C24.4226 54.9912 25.4274 54.841 26.3937 54.5456V56.9981C25.5762 57.4108 24.2865 57.6184 23.0762 57.6184C20.7692 57.6184 19.0258 57.2348 18.0125 56.2017C17.2189 55.3763 16.9199 53.6342 16.9199 51.6871V43.4302H26.3369ZM74.4361 43.4302V46.0626H68.5034V49.0044H73.9268V51.6302H68.5034V57.6184C66.6052 57.6184 64.9623 57.3539 64.9623 55.3194V43.4302H74.4361ZM59.224 43.4302C60.8206 46.5401 62.531 52.0283 63.6077 56.9425H59.6394C59.4978 56.1607 59.3285 55.2784 59.1341 54.3935H54.4382C54.2411 55.2784 54.0982 56.1356 53.9845 56.9425H50.7502C51.9156 51.2413 53.3098 46.5427 55.048 43.4302H59.224ZM89.9987 55.5866C89.9995 55.855 89.9205 56.1174 89.7717 56.3408C89.623 56.5641 89.4112 56.7381 89.1633 56.8408C88.9154 56.9435 88.6426 56.9701 88.3795 56.9174C88.1164 56.8646 87.875 56.7349 87.6858 56.5446C87.4966 56.3543 87.3683 56.1121 87.3171 55.8487C87.2659 55.5853 87.2942 55.3127 87.3983 55.0654C87.5025 54.8181 87.6778 54.6074 87.9019 54.4599C88.1261 54.3125 88.3891 54.235 88.6574 54.2374C88.8344 54.237 89.0097 54.2718 89.1731 54.3395C89.3366 54.4073 89.4851 54.5068 89.6099 54.6322C89.7347 54.7576 89.8335 54.9066 89.9004 55.0704C89.9674 55.2342 90.0012 55.4097 90 55.5866H89.9987ZM44.1958 53.6541C43.799 53.0482 43.6892 51.8021 43.6892 49.8444C43.6892 47.8867 43.8003 46.6697 44.1958 46.0414C44.5569 45.4686 45.4869 45.3258 46.471 45.3258C47.3712 45.3136 48.2666 45.4591 49.1166 45.7557V43.3323C48.3851 42.958 47.2568 42.7543 46.2184 42.7543C44.2765 42.7543 42.3399 43.0413 41.2711 44.1697C40.2592 45.2385 39.9232 47.4766 39.9232 49.8444C39.9232 52.2122 40.2592 54.4332 41.2711 55.5007C42.3399 56.6541 44.2765 56.9425 46.2184 56.9425C47.1734 56.9425 48.1867 56.7996 48.8639 56.4531L49.401 53.9398C48.4552 54.2457 47.4648 54.3911 46.471 54.3697C45.4869 54.3697 44.5569 54.2374 44.1958 53.6541ZM32.0156 47.3827C31.5844 47.0917 31.673 45.9475 32.0156 45.6909C32.3582 45.4342 32.8754 45.3469 33.8212 45.3469C35.2564 45.3469 36.4549 45.6036 37.693 45.9766V43.5294C37.1176 43.1829 35.6824 42.7543 33.6519 42.7543C32.0156 42.7543 30.4692 42.9831 29.3184 44.0771C28.2602 45.0863 28.0327 48.5679 29.2086 49.8034C30.411 51.072 33.6188 51.5323 34.7643 52.3167C35.1929 52.6011 35.0778 53.7533 34.7643 54.0072C34.476 54.2467 33.9032 54.3856 32.9561 54.3856C31.5235 54.3856 30.1187 54.0985 28.7999 53.7242V56.1951C29.4613 56.5682 30.8343 56.9425 33.013 56.9425C34.5037 56.9425 36.308 56.6555 37.3689 55.8486C38.7459 54.7903 39.0317 51.4424 37.7142 50.0018C36.5752 48.7346 33.1571 48.1592 32.0156 47.3827V47.3827ZM87.6296 55.584C87.6244 55.7226 87.6472 55.8608 87.6964 55.9905C87.7456 56.1202 87.8204 56.2387 87.9162 56.3389C88.012 56.4392 88.127 56.5192 88.2543 56.5743C88.3816 56.6293 88.5187 56.6583 88.6574 56.6594C89.2288 56.6687 89.6627 56.1845 89.6627 55.5919C89.6627 54.9993 89.2288 54.5099 88.6442 54.5099C88.5066 54.5133 88.3711 54.5439 88.2455 54.6C88.1199 54.6561 88.0067 54.7366 87.9123 54.8367C87.818 54.9368 87.7444 55.0546 87.6959 55.1834C87.6474 55.3121 87.6248 55.4492 87.6296 55.5866V55.584ZM88.4418 56.2824H88.1362V54.9411C88.3043 54.9148 88.474 54.901 88.6442 54.9001C88.8015 54.8836 88.9599 54.9204 89.0939 55.0046C89.1377 55.0384 89.1726 55.0823 89.1956 55.1325C89.2186 55.1827 89.2291 55.2378 89.2262 55.293C89.2223 55.3689 89.1935 55.4414 89.1443 55.4993C89.095 55.5572 89.028 55.5972 88.9537 55.6131V55.629C89.086 55.6713 89.1468 55.7745 89.1878 55.9584C89.2026 56.0718 89.2356 56.1822 89.2857 56.2851H88.9656C88.9121 56.183 88.8763 56.0725 88.8598 55.9584C88.8373 55.8181 88.7566 55.752 88.5873 55.752H88.4418V56.2824ZM88.4524 55.5271H88.5952C88.7645 55.5271 88.9008 55.4689 88.9008 55.3313C88.9008 55.1938 88.8122 55.125 88.619 55.125C88.5629 55.1232 88.5069 55.129 88.4524 55.1422V55.5271ZM58.6116 52.1209C58.0825 50.1672 57.4726 48.2756 56.7147 46.757C55.9991 48.5019 55.4051 50.2941 54.9369 52.1209H58.6116Z" fill="#111111"/>
</svg>
